REM DIRINDEX 1\2\6,1\2\7,1\2\8,1\2\9,1\3\10,1\3\11,1\4\12,1\4\13,1\4\14,1\5\15,1\5\16,1\5\17
REM DIRNAME cjc020,folder01,folder02,folder03,folder04,folder05,folder06,folder07,folder08,folder09,folder10,folder11,folder12,folder13,folder14,folder15,folder16
TITLE ""
FILE "1900_2_sec08_0749_0764.mp3" MP3
  TRACK 01 AUDIO
    TITLE "0:"
    INDEX 01 00:00:00
  TRACK 02 AUDIO
    TITLE "13:cjc020_3614"
    INDEX 01 00:00:17
  TRACK 03 AUDIO
    TITLE "0:"
    INDEX 01 00:01:50
  TRACK 04 AUDIO
    TITLE "14:cjc020_3615"
    INDEX 01 00:01:52
  TRACK 05 AUDIO
    TITLE "0:"
    INDEX 01 00:05:52
  TRACK 06 AUDIO
    TITLE "13:cjc020_3616"
    INDEX 01 00:06:35
  TRACK 07 AUDIO
    TITLE "0:"
    INDEX 01 00:07:60
  TRACK 08 AUDIO
    TITLE "14:cjc020_3617"
    INDEX 01 00:07:64
  TRACK 09 AUDIO
    TITLE "0:"
    INDEX 01 00:11:42
  TRACK 10 AUDIO
    TITLE "13:cjc020_3618"
    INDEX 01 00:12:22
  TRACK 11 AUDIO
    TITLE "0:"
    INDEX 01 00:13:39
  TRACK 12 AUDIO
    TITLE "14:cjc020_3619"
    INDEX 01 00:13:41
  TRACK 13 AUDIO
    TITLE "0:"
    INDEX 01 00:17:14
  TRACK 14 AUDIO
    TITLE "13:cjc020_3620"
    INDEX 01 00:17:67
  TRACK 15 AUDIO
    TITLE "0:"
    INDEX 01 00:19:03
  TRACK 16 AUDIO
    TITLE "14:cjc020_3621"
    INDEX 01 00:19:05
  TRACK 17 AUDIO
    TITLE "0:"
    INDEX 01 00:21:27
  TRACK 18 AUDIO
    TITLE "13:cjc020_3622"
    INDEX 01 00:22:05
  TRACK 19 AUDIO
    TITLE "0:"
    INDEX 01 00:23:34
  TRACK 20 AUDIO
    TITLE "14:cjc020_3623"
    INDEX 01 00:23:38
  TRACK 21 AUDIO
    TITLE "0:"
    INDEX 01 00:26:18
  TRACK 22 AUDIO
    TITLE "13:cjc020_3624"
    INDEX 01 00:26:71
  TRACK 23 AUDIO
    TITLE "0:"
    INDEX 01 00:28:06
  TRACK 24 AUDIO
    TITLE "14:cjc020_3625"
    INDEX 01 00:28:10
  TRACK 25 AUDIO
    TITLE "0:"
    INDEX 01 00:29:15
  TRACK 26 AUDIO
    TITLE "13:cjc020_3626"
    INDEX 01 00:29:68
  TRACK 27 AUDIO
    TITLE "0:"
    INDEX 01 00:31:24
  TRACK 28 AUDIO
    TITLE "14:cjc020_3627"
    INDEX 01 00:31:29
  TRACK 29 AUDIO
    TITLE "0:"
    INDEX 01 00:32:72
  TRACK 30 AUDIO
    TITLE "13:cjc020_3628"
    INDEX 01 00:33:50
  TRACK 31 AUDIO
    TITLE "0:"
    INDEX 01 00:35:15
  TRACK 32 AUDIO
    TITLE "14:cjc020_3629"
    INDEX 01 00:35:17
  TRACK 33 AUDIO
    TITLE "0:"
    INDEX 01 00:37:18
  TRACK 34 AUDIO
    TITLE "13:cjc020_3630"
    INDEX 01 00:37:73
  TRACK 35 AUDIO
    TITLE "0:"
    INDEX 01 00:39:43
  TRACK 36 AUDIO
    TITLE "14:cjc020_3631"
    INDEX 01 00:39:49
  TRACK 37 AUDIO
    TITLE "0:"
    INDEX 01 00:45:26
  TRACK 38 AUDIO
    TITLE "13:cjc020_3632"
    INDEX 01 00:46:09
  TRACK 39 AUDIO
    TITLE "0:"
    INDEX 01 00:47:28
  TRACK 40 AUDIO
    TITLE "14:cjc020_3633"
    INDEX 01 00:47:32
  TRACK 41 AUDIO
    TITLE "0:"
    INDEX 01 00:50:52
  TRACK 42 AUDIO
    TITLE "13:cjc020_3634"
    INDEX 01 00:51:36
  TRACK 43 AUDIO
    TITLE "0:"
    INDEX 01 00:52:49
  TRACK 44 AUDIO
    TITLE "14:cjc020_3635"
    INDEX 01 00:52:51
  TRACK 45 AUDIO
    TITLE "0:"
    INDEX 01 00:54:68
  TRACK 46 AUDIO
    TITLE "13:cjc020_3636"
    INDEX 01 00:55:48
  TRACK 47 AUDIO
    TITLE "0:"
    INDEX 01 00:56:59
  TRACK 48 AUDIO
    TITLE "14:cjc020_3637"
    INDEX 01 00:56:63
  TRACK 49 AUDIO
    TITLE "0:"
    INDEX 01 00:59:12
  TRACK 50 AUDIO
    TITLE "13:cjc020_3638"
    INDEX 01 00:59:65
  TRACK 51 AUDIO
    TITLE "0:"
    INDEX 01 01:00:70
  TRACK 52 AUDIO
    TITLE "14:cjc020_3639"
    INDEX 01 01:00:74
  TRACK 53 AUDIO
    TITLE "0:"
    INDEX 01 01:03:04
  TRACK 54 AUDIO
    TITLE "13:cjc020_3640"
    INDEX 01 01:03:57
  TRACK 55 AUDIO
    TITLE "0:"
    INDEX 01 01:04:52
  TRACK 56 AUDIO
    TITLE "14:cjc020_3641"
    INDEX 01 01:04:58
  TRACK 57 AUDIO
    TITLE "0:"
    INDEX 01 01:06:71
  TRACK 58 AUDIO
    TITLE "13:cjc020_3642"
    INDEX 01 01:07:53
  TRACK 59 AUDIO
    TITLE "0:"
    INDEX 01 01:08:70
  TRACK 60 AUDIO
    TITLE "14:cjc020_3643"
    INDEX 01 01:08:72
  TRACK 61 AUDIO
    TITLE "0:"
    INDEX 01 01:12:42
  TRACK 62 AUDIO
    TITLE "13:cjc020_3644"
    INDEX 01 01:13:20
  TRACK 63 AUDIO
    TITLE "0:"
    INDEX 01 01:14:61
  TRACK 64 AUDIO
    TITLE "14:cjc020_3645"
    INDEX 01 01:14:65
  TRACK 65 AUDIO
    TITLE "0:"
    INDEX 01 01:17:26
